<svg width="179" height="176" viewBox="0 0 179 176" fill="none" xmlns="http://www.w3.org/2000/svg">
<path d="M63.4966 150.658C64.4014 151.017 65.1579 151.497 65.7662 152.097C66.3621 152.692 66.7551 153.364 66.9454 154.114C67.1357 154.863 67.0797 155.637 66.7774 156.435L63.9888 155.329C64.1631 154.781 64.1444 154.286 63.9327 153.844C63.7086 153.396 63.2991 153.054 62.7042 152.818C62.0969 152.577 61.5632 152.531 61.1031 152.678C60.6381 152.838 60.3121 153.153 60.1253 153.624C59.9728 154.008 59.9652 154.371 60.1023 154.712C60.2395 155.054 60.4607 155.364 60.766 155.643C61.054 155.929 61.4734 156.282 62.0243 156.701C62.7687 157.284 63.3607 157.798 63.8002 158.245C64.2223 158.699 64.5296 159.244 64.7221 159.88C64.8972 160.524 64.8225 161.254 64.498 162.072C64.1931 162.841 63.7355 163.434 63.1251 163.851C62.5147 164.269 61.8035 164.489 60.9914 164.511C60.1745 164.545 59.3198 164.386 58.4275 164.032C57.089 163.5 56.1348 162.742 55.5651 161.755C54.978 160.777 54.8722 159.688 55.2477 158.488L58.1106 159.624C57.9583 160.08 58.0054 160.522 58.2517 160.949C58.4807 161.385 58.8865 161.718 59.469 161.949C59.9771 162.15 60.4377 162.183 60.8508 162.045C61.2515 161.903 61.5502 161.584 61.7469 161.088C61.8846 160.741 61.8886 160.406 61.7589 160.082C61.612 159.765 61.4007 159.466 61.125 159.185C60.8321 158.911 60.4127 158.558 59.8668 158.126C59.1224 157.544 58.5329 157.023 58.0983 156.564C57.6637 156.104 57.3527 155.551 57.1651 154.903C56.9776 154.254 57.0437 153.527 57.3633 152.722C57.6387 152.028 58.0741 151.455 58.6695 151.002C59.2649 150.55 59.981 150.282 60.8176 150.198C61.6493 150.126 62.5423 150.28 63.4966 150.658Z" fill="#094E57"/>
<path d="M37.8552 151.867L45.7367 140.345L48.0478 141.926L44.6942 146.829L49.6299 150.205L52.9835 145.302L55.2946 146.883L47.413 158.405L45.102 156.824L48.3427 152.087L43.4069 148.711L40.1662 153.448L37.8552 151.867Z" fill="#094E57"/>
<path d="M38.5203 132.469C39.3895 133.445 39.9589 134.544 40.2283 135.769C40.4977 136.993 40.4421 138.203 40.0614 139.4C39.6709 140.605 38.9629 141.664 37.9375 142.578C36.9221 143.483 35.7984 144.055 34.5662 144.296C33.3242 144.545 32.1105 144.466 30.9253 144.058C29.74 143.649 28.7127 142.957 27.8435 141.982C26.9654 140.996 26.3961 139.896 26.1355 138.682C25.8661 137.458 25.9311 136.248 26.3306 135.053C26.7112 133.856 27.4092 132.806 28.4246 131.901C29.45 130.988 30.5837 130.406 31.8258 130.156C33.049 129.906 34.2533 129.985 35.4385 130.393C36.6238 130.801 37.6511 131.493 38.5203 132.469ZM36.6537 134.132C36.0949 133.505 35.4633 133.077 34.7588 132.847C34.0443 132.626 33.3036 132.617 32.5364 132.818C31.7693 133.019 31.0374 133.431 30.3405 134.051C29.6437 134.672 29.1561 135.348 28.878 136.078C28.5898 136.817 28.5193 137.549 28.6663 138.275C28.8133 139.002 29.1662 139.678 29.725 140.305C30.2838 140.933 30.9199 141.366 31.6332 141.605C32.3377 141.835 33.0735 141.849 33.8406 141.648C34.5978 141.455 35.3248 141.049 36.0217 140.428C36.7185 139.807 37.211 139.127 37.4991 138.388C37.7873 137.649 37.8628 136.912 37.7257 136.177C37.5699 135.441 37.2125 134.759 36.6537 134.132Z" fill="#094E57"/>
<path d="M18.9263 119.935C19.582 119.578 20.2828 119.401 21.0288 119.405C21.7684 119.397 22.4955 119.631 23.2103 120.107C23.9186 120.571 24.547 121.307 25.0954 122.314L26.2145 124.369L30.9218 121.806L32.2609 124.265L20.0008 130.941L17.5426 126.427C17.0261 125.479 16.7501 124.581 16.7145 123.735C16.6789 122.889 16.8587 122.146 17.254 121.506C17.6428 120.854 18.2002 120.33 18.9263 119.935ZM23.168 123.5C22.7982 122.821 22.3717 122.401 21.8887 122.239C21.394 122.083 20.8656 122.158 20.3036 122.464C19.1092 123.115 18.8755 124.107 19.6024 125.442L20.6641 127.392L24.2297 125.45L23.168 123.5Z" fill="#094E57"/>
<path d="M22.0226 91.0471L22.4065 93.8207L13.7862 101.414L23.2757 100.101L23.6596 102.874L9.81162 104.791L9.42773 102.018L18.0678 94.4212L8.55849 95.7374L8.1746 92.9639L22.0226 91.0471Z" fill="#094E57"/>
<path d="M23.0494 80.7662C22.9118 82.0656 22.4804 83.2266 21.7553 84.2493C21.0303 85.272 20.097 86.0446 18.9556 86.5673C17.801 87.0886 16.5408 87.2769 15.1751 87.1323C13.8227 86.989 12.6432 86.5423 11.6366 85.7921C10.6167 85.0405 9.85941 84.0888 9.36464 82.937C8.86987 81.7851 8.6913 80.5595 8.82892 79.2601C8.96795 77.9474 9.3993 76.7864 10.123 75.777C10.848 74.7544 11.7872 73.989 12.9405 73.481C14.0819 72.9583 15.3288 72.7686 16.6812 72.9118C18.0469 73.0565 19.2397 73.5046 20.2595 74.2562C21.2675 74.9931 22.0189 75.9375 22.5137 77.0893C23.0084 78.2412 23.187 79.4668 23.0494 80.7662ZM20.5633 80.5029C20.6518 79.6676 20.5441 78.912 20.2402 78.2363C19.9231 77.5591 19.4321 77.0043 18.7673 76.5719C18.1025 76.1395 17.306 75.8741 16.3779 75.7758C15.4497 75.6775 14.622 75.7708 13.8946 76.0558C13.1539 76.3394 12.5643 76.7797 12.1256 77.3768C11.6869 77.974 11.4234 78.6902 11.3349 79.5255C11.2464 80.3608 11.3534 81.123 11.6559 81.812C11.9597 82.4878 12.4441 83.0419 13.1089 83.4743C13.7604 83.9053 14.5503 84.17 15.4784 84.2683C16.4066 84.3666 17.241 84.274 17.9816 83.9904C18.7223 83.7068 19.3186 83.2672 19.7705 82.6715C20.2106 82.0611 20.4748 81.3382 20.5633 80.5029Z" fill="#094E57"/>
<path d="M18.5127 48.2604L30.0623 57.0182L28.8495 60.0872L18.6422 58.8706L26.8795 65.0721L25.6926 68.1299L11.3091 66.4886L12.4117 63.6986L23.3972 65.3948L14.3596 58.7695L15.5063 55.8679L26.5168 57.3374L17.4028 51.069L18.5127 48.2604Z" fill="#094E57"/>
<path d="M41.9504 42.0979C41.2762 42.7999 40.5464 43.3191 39.761 43.6556C38.9849 43.9824 38.2139 44.0922 37.4479 43.9851C36.6819 43.878 35.9866 43.5336 35.3619 42.9521L37.44 40.7885C37.8812 41.1568 38.3467 41.3266 38.8365 41.2978C39.3355 41.2595 39.8067 41.0095 40.25 40.548C40.7026 40.0768 40.9476 39.6003 40.985 39.1186C41.0129 38.6277 40.8441 38.2068 40.4787 37.8558C40.1806 37.5695 39.8476 37.4253 39.4798 37.4233C39.112 37.4213 38.7413 37.5089 38.3676 37.6862C37.9936 37.8446 37.5084 38.0996 36.912 38.4511C36.0916 38.9202 35.3915 39.2738 34.8116 39.5118C34.2314 39.731 33.6106 39.8095 32.9492 39.7474C32.2875 39.6665 31.6393 39.3212 31.0046 38.7116C30.4084 38.139 30.0323 37.4912 29.8763 36.7682C29.7202 36.0452 29.7854 35.3037 30.0719 34.5435C30.3487 33.7741 30.8196 33.0432 31.4846 32.3508C32.4821 31.3123 33.5451 30.7156 34.6736 30.5608C35.8017 30.3872 36.85 30.7008 37.8186 31.5017L35.6851 33.7231C35.3204 33.4098 34.8936 33.2864 34.4045 33.3528C33.9151 33.4004 33.4534 33.6502 33.0193 34.1022C32.6406 34.4964 32.4368 34.9107 32.4078 35.3451C32.3881 35.7698 32.5706 36.1669 32.9552 36.5364C33.2245 36.795 33.5336 36.9255 33.8825 36.9279C34.2311 36.9114 34.5878 36.8288 34.9525 36.68C35.3169 36.5123 35.8022 36.2574 36.4082 35.9151C37.2286 35.4459 37.9335 35.097 38.523 34.8682C39.1125 34.6394 39.7427 34.5607 40.4137 34.632C41.0846 34.7034 41.7326 35.0392 42.3577 35.6396C42.8962 36.1568 43.2623 36.7765 43.4561 37.4987C43.6498 38.2209 43.6275 38.9852 43.3891 39.7916C43.1412 40.5887 42.6616 41.3575 41.9504 42.0979Z" fill="#094E57"/>
<path d="M50.5211 17.901L58.2104 29.5525L55.8734 31.0947L52.6016 26.137L47.6105 29.4309L50.8823 34.3886L48.5453 35.9308L40.856 24.2794L43.193 22.7371L46.3546 27.5279L51.3457 24.2341L48.1841 19.4433L50.5211 17.901Z" fill="#094E57"/>
<path d="M68.2297 25.8477C66.9979 26.2838 65.7644 26.3952 64.5291 26.182C63.2937 25.9687 62.1942 25.4598 61.2304 24.6554C60.2622 23.8383 59.5489 22.7825 59.0906 21.4879C58.6367 20.2059 58.5312 18.949 58.774 17.7174C59.0124 16.4731 59.5446 15.3795 60.3705 14.4364C61.1965 13.4933 62.2253 12.8038 63.4571 12.3677C64.7014 11.9271 65.9349 11.8157 67.1577 12.0334C68.3931 12.2467 69.4885 12.7641 70.4442 13.5856C71.4079 14.39 72.1168 15.4333 72.5707 16.7153C73.029 18.0099 73.139 19.2793 72.9006 20.5235C72.6703 21.7508 72.1422 22.8359 71.3162 23.779C70.4903 24.722 69.4614 25.4116 68.2297 25.8477ZM67.3953 23.4911C68.1871 23.2107 68.8224 22.7878 69.3011 22.2223C69.7754 21.6442 70.0643 20.962 70.1678 20.1757C70.2713 19.3894 70.1673 18.5563 69.8558 17.6765C69.5443 16.7967 69.1032 16.0901 68.5324 15.5566C67.9572 15.0106 67.3056 14.6685 66.5777 14.5301C65.8498 14.3918 65.09 14.4628 64.2981 14.7432C63.5063 15.0235 62.8647 15.4487 62.3735 16.0187C61.8948 16.5842 61.6036 17.2601 61.5001 18.0464C61.3922 18.8201 61.494 19.6469 61.8054 20.5267C62.1169 21.4065 62.5603 22.1194 63.1355 22.6654C63.7107 23.2114 64.3645 23.5599 65.0969 23.7108C65.8373 23.8447 66.6035 23.7714 67.3953 23.4911Z" fill="#094E57"/>
<path d="M87.2391 12.4435C87.3218 13.1855 87.2206 13.9012 86.9352 14.5904C86.6632 15.2781 86.1716 15.8629 85.4607 16.3447C84.763 16.825 83.8443 17.1288 82.7047 17.2559L80.3791 17.5154L80.9735 22.8423L78.1907 23.1528L76.6428 9.27888L81.7511 8.70894C82.8245 8.58919 83.7595 8.67269 84.5562 8.95945C85.3529 9.24621 85.973 9.69355 86.4165 10.3015C86.8732 10.9079 87.1474 11.6219 87.2391 12.4435ZM82.3349 15.0232C83.1034 14.9374 83.654 14.7016 83.9866 14.3156C84.3177 13.9165 84.4478 13.3988 84.3768 12.7628C84.226 11.4112 83.3953 10.8196 81.8847 10.9882L79.6784 11.2343L80.1285 15.2693L82.3349 15.0232Z" fill="#094E57"/>
<path d="M112.814 26.2271L110.101 25.5344L106.329 14.6837L103.959 23.9658L101.246 23.2731L104.704 9.72772L107.417 10.4204L111.185 21.2905L113.56 11.989L116.273 12.6817L112.814 26.2271Z" fill="#094E57"/>
<path d="M121.945 31.063C120.794 30.4445 119.882 29.6064 119.209 28.5486C118.536 27.4909 118.174 26.3348 118.121 25.0806C118.075 23.8145 118.377 22.5766 119.027 21.3669C119.67 20.1689 120.53 19.2456 121.605 18.5972C122.686 17.937 123.853 17.5955 125.107 17.5727C126.36 17.55 127.562 17.8478 128.713 18.4663C129.876 19.0911 130.788 19.9292 131.449 20.9807C132.122 22.0384 132.476 23.1972 132.51 24.4569C132.563 25.7112 132.267 26.9373 131.623 28.1353C130.973 29.3451 130.108 30.2801 129.026 30.9403C127.963 31.595 126.805 31.9338 125.552 31.9566C124.298 31.9793 123.096 31.6815 121.945 31.063ZM123.128 28.8608C123.868 29.2584 124.608 29.4442 125.349 29.4183C126.096 29.3806 126.795 29.1357 127.446 28.6836C128.098 28.2315 128.645 27.5943 129.086 26.7722C129.528 25.95 129.755 25.1484 129.766 24.3672C129.783 23.5743 129.598 22.862 129.211 22.2302C128.824 21.5984 128.261 21.0837 127.521 20.6861C126.781 20.2885 126.035 20.0996 125.282 20.1192C124.542 20.1451 123.846 20.3842 123.194 20.8363C122.549 21.2766 122.005 21.9079 121.564 22.73C121.122 23.5522 120.892 24.3597 120.875 25.1526C120.858 25.9455 121.039 26.6637 121.42 27.3073C121.819 27.9454 122.388 28.4632 123.128 28.8608Z" fill="#094E57"/>
<path d="M153.755 39.147L141.282 46.5305L138.898 44.2478L143.882 35.2572L135.028 40.5401L132.645 38.2856L139.6 25.589L141.767 27.6642L136.045 37.194L145.594 31.3304L147.847 33.4886L142.326 43.1273L151.574 37.058L153.755 39.147Z" fill="#094E57"/>
<path d="M150.603 63.1755C150.208 62.286 150.003 61.4141 149.988 60.5598C149.979 59.7178 150.168 58.9624 150.557 58.2937C150.946 57.625 151.527 57.1114 152.302 56.7528L153.52 59.4944C153.012 59.7637 152.679 60.1306 152.52 60.5949C152.367 61.0714 152.421 61.6021 152.68 62.187C152.946 62.784 153.294 63.1909 153.726 63.4076C154.17 63.6189 154.623 63.6217 155.086 63.416C155.464 63.2482 155.724 62.9945 155.864 62.6547C156.005 62.3149 156.064 61.9386 156.041 61.5257C156.036 61.1195 155.983 60.5739 155.883 59.8889C155.759 58.952 155.696 58.1702 155.695 57.5434C155.711 56.9234 155.873 56.3189 156.181 55.7301C156.506 55.148 157.07 54.6784 157.874 54.3211C158.63 53.9855 159.372 53.8821 160.1 54.0109C160.828 54.1397 161.49 54.4803 162.086 55.0327C162.694 55.5798 163.192 56.292 163.582 57.1693C164.167 58.4853 164.317 59.695 164.034 60.7983C163.769 61.9083 163.082 62.7604 161.975 63.3545L160.724 60.5397C161.152 60.3205 161.428 59.9719 161.551 59.4941C161.692 59.023 161.635 58.5011 161.381 57.9284C161.159 57.4288 160.852 57.0835 160.461 56.8925C160.075 56.7137 159.639 56.7326 159.151 56.9491C158.81 57.1007 158.572 57.3375 158.438 57.6597C158.322 57.9887 158.264 58.3501 158.263 58.7441C158.281 59.1448 158.334 59.6904 158.422 60.3808C158.546 61.3177 158.603 62.1022 158.592 62.7344C158.581 63.3667 158.415 63.9799 158.096 64.5741C157.776 65.1684 157.22 65.6414 156.428 65.9933C155.746 66.2964 155.034 66.4011 154.292 66.3076C153.55 66.214 152.851 65.9045 152.194 65.3791C151.55 64.8483 151.02 64.1138 150.603 63.1755Z" fill="#094E57"/>
<path d="M169.766 80.2548L156.073 82.9707L155.528 80.2242L161.355 79.0686L160.191 73.2029L154.365 74.3585L153.82 71.612L167.514 68.8961L168.058 71.6426L162.428 72.7593L163.591 78.625L169.222 77.5083L169.766 80.2548Z" fill="#094E57"/>
<path d="M155.717 93.6471C155.778 92.3419 156.141 91.1577 156.806 90.0946C157.47 89.0315 158.357 88.2057 159.466 87.6175C160.588 87.0299 161.835 86.7685 163.207 86.8334C164.565 86.8976 165.769 87.2749 166.818 87.9652C167.879 88.6561 168.691 89.5621 169.252 90.6832C169.813 91.8043 170.062 93.0175 170.001 94.3227C169.938 95.6412 169.575 96.8254 168.912 97.8752C168.247 98.9383 167.354 99.757 166.233 100.331C165.124 100.92 163.89 101.182 162.531 101.117C161.16 101.053 159.943 100.675 158.881 99.9837C157.832 99.3067 157.027 98.4076 156.466 97.2865C155.905 96.1655 155.655 94.9523 155.717 93.6471ZM158.214 93.7652C158.174 94.6043 158.326 95.3523 158.668 96.0092C159.024 96.6667 159.547 97.192 160.236 97.585C160.925 97.978 161.735 98.1965 162.667 98.2406C163.6 98.2847 164.421 98.1433 165.13 97.8165C165.853 97.4903 166.416 97.0163 166.819 96.3947C167.222 95.773 167.444 95.0427 167.484 94.2036C167.523 93.3646 167.372 92.6099 167.03 91.9397C166.687 91.2827 166.172 90.7578 165.483 90.3648C164.807 89.9724 164.003 89.7542 163.071 89.7101C162.139 89.666 161.311 89.8071 160.588 90.1333C159.865 90.4595 159.296 90.9331 158.879 91.5542C158.475 92.1891 158.254 92.9261 158.214 93.7652Z" fill="#094E57"/>
<path d="M160.943 116.312C160.225 116.109 159.6 115.744 159.07 115.22C158.536 114.708 158.181 114.032 158.003 113.192C157.822 112.364 157.888 111.399 158.201 110.296L158.84 108.044L153.683 106.582L154.447 103.888L167.877 107.698L166.475 112.643C166.18 113.682 165.749 114.516 165.183 115.145C164.616 115.774 163.968 116.179 163.237 116.36C162.503 116.554 161.738 116.538 160.943 116.312ZM160.408 110.797C160.197 111.541 160.207 112.14 160.439 112.594C160.683 113.051 161.113 113.367 161.729 113.542C163.037 113.913 163.899 113.367 164.314 111.905L164.92 109.769L161.014 108.661L160.408 110.797Z" fill="#094E57"/>
<path d="M138.516 134.782L140.183 132.532L151.655 133.14L143.957 127.438L145.623 125.188L156.857 133.509L155.191 135.759L143.703 135.139L151.417 140.853L149.75 143.103L138.516 134.782Z" fill="#094E57"/>
<path d="M130.589 141.408C131.596 140.576 132.717 140.048 133.95 139.825C135.184 139.602 136.391 139.703 137.573 140.129C138.762 140.564 139.794 141.311 140.669 142.37C141.535 143.419 142.065 144.564 142.259 145.804C142.461 147.055 142.336 148.264 141.884 149.433C141.431 150.602 140.701 151.603 139.693 152.435C138.676 153.275 137.555 153.803 136.332 154.018C135.098 154.241 133.892 154.13 132.712 153.686C131.531 153.261 130.508 152.524 129.642 151.475C128.767 150.416 128.229 149.261 128.026 148.011C127.822 146.779 127.946 145.579 128.398 144.41C128.851 143.24 129.581 142.24 130.589 141.408ZM132.18 143.336C131.533 143.871 131.081 144.486 130.825 145.181C130.578 145.887 130.54 146.627 130.713 147.401C130.885 148.175 131.268 148.922 131.862 149.642C132.457 150.361 133.113 150.874 133.832 151.179C134.56 151.495 135.289 151.593 136.021 151.473C136.752 151.354 137.441 151.027 138.089 150.492C138.737 149.957 139.194 149.338 139.46 148.634C139.716 147.938 139.757 147.204 139.585 146.429C139.421 145.666 139.042 144.924 138.448 144.204C137.854 143.484 137.193 142.967 136.465 142.651C135.738 142.335 135.004 142.232 134.264 142.341C133.523 142.47 132.828 142.801 132.18 143.336Z" fill="#094E57"/>
<path d="M111.083 167.804L108.961 153.465L111.975 152.122L118.415 160.134L116.87 149.939L119.858 148.585L128.985 159.823L126.245 161.044L119.584 152.146L121.404 163.203L118.554 164.473L111.717 155.718L113.841 166.574L111.083 167.804Z" fill="#094E57"/>
</svg>
